<svg id="Dashboard" xmlns="http://www.w3.org/2000/svg" width="35.521" height="35.527" viewBox="0 0 35.521 35.527">
  <g id="Path_360" data-name="Path 360" transform="translate(-0.75 -0.756)" fill="none">
    <path d="M16.145,19.341a1.544,1.544,0,0,1-1.54,1.547H2.29A1.543,1.543,0,0,1,.75,19.341V2.3A1.544,1.544,0,0,1,2.291.756L14.607.777a1.544,1.544,0,0,1,1.538,1.547Z" stroke="none"/>
    <path d="M 13.14504146575928 17.88797569274902 L 13.14504146575928 3.774097442626953 L 3.750001192092896 3.758436441421509 L 3.750001192092896 17.88797569274902 L 13.14504146575928 17.88797569274902 M 14.60553073883057 20.88797569274902 L 2.289501190185547 20.88797569274902 C 1.880091190338135 20.88713645935059 1.487801194190979 20.72358703613281 1.199041247367859 20.43334579467773 C 0.9102811813354492 20.14310646057129 0.7487412095069885 19.74998664855957 0.7500011920928955 19.340576171875 L 0.7500011920928955 2.303396224975586 C 0.74825119972229 1.450536251068115 1.438221216201782 0.7577462196350098 2.291081190109253 0.7559962272644043 L 14.60711097717285 0.7765262126922607 C 15.45874118804932 0.7800061702728271 16.14679145812988 1.472296237945557 16.14504051208496 2.323926210403442 L 16.14504051208496 19.34056663513184 C 16.14678192138672 20.19281578063965 15.4577808380127 20.88535690307617 14.60553073883057 20.88797569274902 Z" stroke="none" fill="#065b9a"/>
  </g>
  <g id="Path_361" data-name="Path 361" transform="translate(6.63 -0.756)" fill="none">
    <path d="M28.891,9.9a1.53,1.53,0,0,1-1.54,1.519H15.036A1.528,1.528,0,0,1,13.5,9.9V2.3A1.528,1.528,0,0,1,15.032.777L27.348.756a1.532,1.532,0,0,1,1.543,1.519Z" stroke="none"/>
    <path d="M 25.89103507995605 8.414116859436035 L 25.89102935791016 3.758453130722046 L 16.49599838256836 3.774106502532959 L 16.49599838256836 8.414116859436035 L 25.89103507995605 8.414116859436035 M 15.02441501617432 11.41415691375732 C 14.62273979187012 11.41416454315186 14.23705196380615 11.25603580474854 13.95091724395752 10.97371673583984 C 13.66215801239014 10.68880653381348 13.49849796295166 10.3007869720459 13.49599742889404 9.895136833190918 L 13.49599742889404 2.295516729354858 C 13.50120067596436 1.454725384712219 14.18446063995361 0.7765157222747803 15.02426147460938 0.7765157222747803 C 15.02698612213135 0.7765157222747803 15.02961921691895 0.7765225172042847 15.03234767913818 0.7765367031097412 L 27.34836769104004 0.7560166716575623 C 27.35213470458984 0.7559893727302551 27.35594749450684 0.755975604057312 27.35970878601074 0.755975604057312 C 28.19983863830566 0.755975604057312 28.88411903381348 1.433482885360718 28.89102745056152 2.274996757507324 L 28.89103698730469 9.895136833190918 C 28.88497161865234 10.73628997802734 28.20120620727539 11.41414642333984 27.36124229431152 11.41414642333984 C 27.35799980163574 11.41414642333984 27.35477447509766 11.41413688659668 27.35152816772461 11.41411685943604 L 15.03550815582275 11.41411685943604 C 15.03181838989258 11.41414356231689 15.02810096740723 11.41415691375732 15.02441501617432 11.41415691375732 Z" stroke="none" fill="#065b9a"/>
  </g>
  <g id="Path_362" data-name="Path 362" transform="translate(-0.75 8.363)" fill="none">
    <path d="M16.145,25.64A1.533,1.533,0,0,1,14.6,27.164L2.286,27.144A1.53,1.53,0,0,1,.75,25.621V18.028a1.53,1.53,0,0,1,1.54-1.522H14.606a1.532,1.532,0,0,1,1.54,1.522Z" stroke="none"/>
    <path d="M 13.14503479003906 24.16167068481445 L 13.14502811431885 19.50600814819336 L 3.749996423721313 19.50600814819336 L 3.749996423721313 24.14600944519043 L 13.14503479003906 24.16167068481445 M 14.61208343505859 27.16413879394531 C 14.60883235931396 27.16413879394531 14.60563278198242 27.16412925720215 14.60237598419189 27.16410827636719 L 2.286346435546875 27.14357948303223 C 2.284233331680298 27.14358711242676 2.281980037689209 27.14359283447266 2.279869079589844 27.14359283447266 C 1.438368201255798 27.14366912841797 0.7543355822563171 26.46373558044434 0.7499964237213135 25.6214485168457 L 0.7499964237213135 18.02813911437988 C 0.7520864605903625 17.62206840515137 0.9155064225196838 17.23349952697754 1.204266428947449 16.947998046875 C 1.49077045917511 16.66471862792969 1.87734854221344 16.50597953796387 2.279998064041138 16.50597953796387 C 2.28316855430603 16.50597953796387 2.286334037780762 16.50598907470703 2.289506435394287 16.50600814819336 L 14.60552597045898 16.50600814819336 C 14.60820960998535 16.50599479675293 14.61093330383301 16.5059871673584 14.61361312866211 16.5059871673584 C 15.45521640777588 16.5059871673584 16.13983345031738 17.18556213378906 16.14502716064453 18.02813911437988 L 16.1450366973877 25.6403980255127 C 16.13983726501465 26.48390197753906 15.45438385009766 27.16413879394531 14.61208343505859 27.16413879394531 Z" stroke="none" fill="#065b9a"/>
  </g>
  <g id="Path_363" data-name="Path 363" transform="translate(6.63 4.889)" fill="none">
    <path d="M15.037,30.638A1.544,1.544,0,0,1,13.5,29.089V12.055a1.544,1.544,0,0,1,1.54-1.549H27.352a1.544,1.544,0,0,1,1.54,1.549V29.068a1.546,1.546,0,0,1-1.538,1.549Z" stroke="none"/>
    <path d="M 16.49600028991699 27.63553428649902 L 25.89103889465332 27.61987495422363 L 25.89103889465332 13.50600528717041 L 16.49600028991699 13.50600528717041 L 16.49600028991699 27.63553428649902 M 15.03708934783936 30.63797569274902 C 14.6272497177124 30.63713455200195 14.23456001281738 30.47341537475586 13.9455099105835 30.18288612365723 C 13.65644931793213 29.8923454284668 13.49475002288818 29.49882507324219 13.49599933624268 29.08898544311523 L 13.49599933624268 12.05497550964355 C 13.49338912963867 11.20211505889893 14.18264961242676 10.50861549377441 15.03551006317139 10.50600528717041 L 27.35153007507324 10.50600528717041 C 28.20439910888672 10.50861549377441 28.8936595916748 11.20211505889893 28.89103889465332 12.05497550964355 L 28.89103889465332 29.06846618652344 C 28.89278984069824 29.92036437988281 28.20499992370605 30.61310577392578 27.35310935974121 30.61744499206543 L 15.03708934783936 30.63797569274902 Z" stroke="none" fill="#065b9a"/>
  </g>
</svg>
