<svg xmlns="http://www.w3.org/2000/svg" width="60" height="60" viewBox="0 0 84 84"><defs><style>.a{fill:#fff;}</style></defs><path class="a" d="M20.94,18.75H6.625a2.625,2.625,0,0,1,0-5.25H20.94a2.625,2.625,0,1,1,0,5.25Z" transform="translate(10 33.75)"/><path class="a" d="M18.875,21.75H6.625a2.625,2.625,0,0,1,0-5.25h12.25a2.625,2.625,0,0,1,0,5.25Z" transform="translate(10 41.25)"/><path class="a" d="M28.875,73.5H9.625A9.633,9.633,0,0,1,0,63.875V9.625A9.633,9.633,0,0,1,9.625,0h40.25A9.633,9.633,0,0,1,59.5,9.625v19.46a2.625,2.625,0,0,1-5.25,0V9.625A4.381,4.381,0,0,0,49.875,5.25H9.625A4.381,4.381,0,0,0,5.25,9.625v54.25A4.381,4.381,0,0,0,9.625,68.25h19.25a2.625,2.625,0,0,1,0,5.25Z"/><circle class="a" cx="7" cy="7" r="7" transform="translate(22.75 10.5)"/><path class="a" d="M29.875,22H7.125A2.626,2.626,0,0,1,4.5,19.375v-1.75A9.633,9.633,0,0,1,14.125,8h8.75A9.633,9.633,0,0,1,32.5,17.625v1.75A2.626,2.626,0,0,1,29.875,22Z" transform="translate(11.25 20)"/><path class="a" d="M33.75,11A22.75,22.75,0,1,0,56.5,33.75,22.776,22.776,0,0,0,33.75,11ZM45.132,28.182l-12.25,14a3.5,3.5,0,0,1-5.106.168l-7-7A3.5,3.5,0,0,1,25.725,30.4l4.354,4.354,9.786-11.186a3.5,3.5,0,1,1,5.267,4.613Z" transform="translate(27.5 27.5)"/></svg>