<svg xmlns="http://www.w3.org/2000/svg" width="84" height="84" viewBox="0 0 78.396 77.461"><defs><style>.a{fill:#fff;}</style></defs><g transform="translate(0 -0.186)"><g transform="translate(0 0.186)"><circle class="a" cx="12.102" cy="12.102" r="12.102" transform="translate(2.976 36.843)"/><path class="a" d="M19.751,25.192l-4.462,5.349-4.61-5.349L0,26.816V39.792H29.922L29.5,26.816Z" transform="translate(0 37.669)"/><circle class="a" cx="12.099" cy="12.099" r="12.099" transform="translate(51.453 36.171)"/><path class="a" d="M48.788,26.543l-9.751-1.619-4.465,5.349-4.615-5.349L19.283,26.543V39.519H49.205Z" transform="translate(29.191 37.263)"/><circle class="a" cx="12.099" cy="12.099" r="12.099" transform="translate(28.298)"/><path class="a" d="M36.937,25.3,52.769,9.466,48.556,5.25,36.017,18.538H29.826l-4.465,5.349-4.61-5.349L10.072,20.159v11.8H36.605Z" transform="translate(15.247 7.48)"/></g></g></svg>