<svg xmlns="http://www.w3.org/2000/svg" width="78.866" height="78.866" viewBox="0 0 78.866 78.866"><defs><style>.a{fill:#fff;}</style></defs><g transform="translate(0)"><g transform="translate(0)"><g transform="translate(0)"><path class="a" d="M20.256,72.7H9.349a3.13,3.13,0,0,1-2.464-1.172,3.219,3.219,0,0,1-.652-2.7A34.037,34.037,0,0,1,38.648,41.881c.261.01.522.016.785.016s.529-.007.792-.016a33.742,33.742,0,0,1,11.127,2.144,3.081,3.081,0,1,0,2.166-5.768q-.765-.287-1.54-.541a20.949,20.949,0,1,0-25.077.01A40.062,40.062,0,0,0,.2,67.579,9.359,9.359,0,0,0,9.349,78.866H20.256a3.081,3.081,0,1,0,0-6.161Zm4.39-51.756a14.787,14.787,0,1,1,15.507,14.77c-.24,0-.48-.008-.72-.008s-.482,0-.722.008A14.806,14.806,0,0,1,24.646,20.949Z" transform="translate(0)"/><path class="a" d="M200.018,317.869A8.3,8.3,0,0,0,192.443,313h-9.628a8.156,8.156,0,0,0-7.706,5.207c-.162.421-.36.952-.566,1.57h-20.17a3.081,3.081,0,0,0-2.21.935l-5.292,5.451a3.081,3.081,0,0,0,.013,4.305l5.391,5.485a3.081,3.081,0,0,0,2.2.921h10.012a3.081,3.081,0,1,0,0-6.161h-8.721l-2.376-2.418,2.288-2.357h21.178a3.081,3.081,0,0,0,2.992-2.348,25.463,25.463,0,0,1,1.014-3.173,2.019,2.019,0,0,1,1.963-1.257h9.613a2.1,2.1,0,0,1,1.957,1.222,19.9,19.9,0,0,1,1.822,7.854,20.484,20.484,0,0,1-1.808,7.993,2.1,2.1,0,0,1-1.935,1.261h-9.729a2.193,2.193,0,0,1-1.986-1.364,20.477,20.477,0,0,1-.955-3.049,3.081,3.081,0,0,0-5.992,1.434,26.515,26.515,0,0,0,1.251,3.965,8.31,8.31,0,0,0,7.675,5.176h9.743a8.26,8.26,0,0,0,7.575-4.96,26.668,26.668,0,0,0,2.322-10.471A26.082,26.082,0,0,0,200.018,317.869Z" transform="translate(-123.511 -264.787)"/><ellipse class="a" cx="3" cy="2.5" rx="3" ry="2.5" transform="translate(63.254 61.254)"/></g></g></g></svg>