<svg xmlns="http://www.w3.org/2000/svg" xmlns:xlink="http://www.w3.org/1999/xlink" viewBox="0 0 750 500"><defs><style>.cls-1{isolation:isolate;}.cls-2,.cls-4{mix-blend-mode:multiply;}.cls-3{fill:url(#linear-gradient);}.cls-4{opacity:0.43;}.cls-5{fill:url(#linear-gradient-2);}.cls-6{fill:url(#linear-gradient-3);}</style><linearGradient id="linear-gradient" x1="375" y1="548.06" x2="375" y2="39.18" gradientUnits="userSpaceOnUse"><stop offset="0" stop-color="#66a8de"/><stop offset="0.17" stop-color="#85b9e5"/><stop offset="0.57" stop-color="#c6dff3"/><stop offset="0.85" stop-color="#eff6fc"/><stop offset="1" stop-color="#fff"/></linearGradient><linearGradient id="linear-gradient-2" x1="432.9" y1="97.6" x2="246.05" y2="284.45" xlink:href="#linear-gradient"/><linearGradient id="linear-gradient-3" x1="375" y1="500.01" x2="375" y2="245.11" xlink:href="#linear-gradient"/></defs><title>bg</title><g class="cls-1"><g id="BACKGROUND"><g class="cls-2"><rect class="cls-3" y="0.01" width="750" height="500"/><g class="cls-4"><path class="cls-5" d="M748.64.24c-1.1,0,1.46,86.25,1.46,86.25s-12.7,12.16-111.44,7.15c-38.89-2-78.28-10.25-116.94-2.39-39.46,8-74.92,30-114.21,38.79A178.36,178.36,0,0,1,297,119c-19.93-8.87-38.53-21.8-50.94-39.73-9-13-14.42-28.08-17.53-43.52C226.07,23.68,224.36.06,224.36.06S583.37.12,748.64.24Z"/><path class="cls-6" d="M750,393.12V499.63l-.25.38H0V310.13a76.8,76.8,0,0,1,23.58,18.2c9.56,10.91,34.81,22.19,48.27,12.1,15.9-11.92,20.52-40.83,32-56.44,11.94-16.23,35.31-22.12,53.55-26.93,22.84-6,46.66-10.57,70.27-11.77,48.26-2.47,93.48,20.72,125.9,54.77,20.06,21.06,45.89,26.29,74,26,18.91-.2,36.17-4.16,54.92,1.22,10.61,3.05,18.59,3.52,28.83-.22l-1,2c16.08,0,31.07-.2,45.49,8,24.33,13.77,33.26,35.67,63.92,36,33.23.4,71.11-15.37,103.64-.72A75.83,75.83,0,0,1,750,393.12Z"/></g></g></g></g></svg>