<svg xmlns="http://www.w3.org/2000/svg" viewBox="0 0 443.83 1334.79"><defs><style>.cls-1{fill:#fff;}.cls-2{fill:#a1c5e2;}.cls-3{fill:#0e2549;}.cls-4{fill:#e2474b;}.cls-5{fill:#2e6b99;}.cls-6{fill:#789cb5;}.cls-7{fill:#ebf4fe;}.cls-8{fill:#c8e1f9;}</style></defs><title>Asset 1</title><g id="Layer_2" data-name="Layer 2"><g id="_Layer_" data-name="&lt;Layer&gt;"><path class="cls-1" d="M176,159.24s2.29,61.94-3.2,69-43.57,34.18-43.57,34.18l103.61,59.92,62.24-69.71s-31.44-13.78-34.41-21.95c-4.11-11.31-3.36-71.45-3.36-71.45Z"/><path class="cls-2" d="M236.22,36.24c13,1.38,44.59,4.33,44.59,27.51,0,26.45-4.47,60.46-7.13,78.37a14.43,14.43,0,0,1-14.27,12.29h-80a14.42,14.42,0,0,1-14.33-12.78c-2.81-24.52-8.3-76.43-5.39-84.26C169.58,30.74,215.66,34.05,236.22,36.24Z"/><path class="cls-1" d="M235.15,181.71c-22.69,2.63-51-1.66-58.9-9.52-4.61-4.62-6.46-22.85-7-43.66a1.73,1.73,0,0,0-.87-1.45c-5.61-3.22-13.73-10.09-13.49-20.42.2-8.94,6.92-7.07,12.2-4.19.94.52,2.3-.18,2.1-1.23-4.62-24.12-6.76-48.3-6.76-48.3l110.13,1.21s-.2,22.37-1.17,47.47a1.43,1.43,0,0,0,2.14,1.29c5.37-3.1,12.76-5.64,13,3.75.27,11.71-10.19,19-15.57,21.51a1.69,1.69,0,0,0-1,1.43c-1.18,17.69-2.88,33-5.32,38.42-1.32,2.95-3.87,5.4-7.29,7.39Z"/><path class="cls-3" d="M295.57,251.54c-8.61-3.78-31.46-14.95-33.76-21.26-3.67-10.11-3.2-48-3.1-54.29a17.58,17.58,0,0,0,7-7.48c2.21-4.89,4-18,5.42-38.83a.49.49,0,0,1,.28-.42c7.66-3.6,16.52-11.69,16.27-22.62-.08-3.54-1.15-5.9-3.16-7-2.59-1.45-6.5-.69-11.62,2.26a.19.19,0,0,1-.23,0,.2.2,0,0,1-.11-.2c1-24.82,1.18-47.28,1.18-47.5V53L161.13,51.72l.11,1.32c0,.25,2.2,24.47,6.76,48.35a.36.36,0,0,1-.32,0c-4.77-2.6-8.43-3.19-10.89-1.77-2,1.14-3,3.5-3.1,7-.27,11.94,9.77,19,14.1,21.48a.52.52,0,0,1,.26.43c.64,25.34,3,39.84,7.19,44.33.91,24.67.44,49.71-3.38,54.63-5.33,6.84-42.94,33.67-43.32,33.94L127,262.54l106.07,61.34,64-71.67Zm-63,69.27L131.46,262.32c7.26-5.2,37.33-26.94,42.3-33.33,5.14-6.61,4.32-43.14,4-54.07,8,5.37,25.36,8.8,43.08,8.8a126.1,126.1,0,0,0,14.48-.81,1.2,1.2,0,1,0-.28-2.39c-22.85,2.65-50.46-1.73-57.91-9.18-2.6-2.6-5.86-12.15-6.63-42.85A3,3,0,0,0,169,126c-4-2.26-13.13-8.69-12.89-19.34.06-2.6.7-4.27,1.9-5,1.63-.94,4.66-.3,8.52,1.81a2.78,2.78,0,0,0,2.92-.21,2.28,2.28,0,0,0,.95-2.31c-3.95-20.59-6.1-41.47-6.62-46.85l107.58,1.18c-.06,5-.32,24.72-1.16,46.23a2.63,2.63,0,0,0,3.95,2.38c4.21-2.43,7.49-3.23,9.24-2.24,1.22.68,1.87,2.36,1.93,5,.29,12.88-13.33,19.66-14.89,20.39a2.88,2.88,0,0,0-1.65,2.44c-1.38,20.58-3.13,33.36-5.22,38-1.16,2.6-3.45,4.9-6.8,6.85a1.21,1.21,0,0,0-.45,1.61c-.1,6.71-.63,44.45,3.25,55.12,2.78,7.64,26.7,18.89,33.54,22Z"/><polygon class="cls-1" points="116.05 1260.3 117.16 1290.13 168.69 1290.13 170.83 1256.44 116.05 1260.3"/><path class="cls-3" d="M169.82,1291.33H116l-1.2-32.16,57.32-4Zm-51.49-2.41h49.23l2-31.18-52.24,3.67Z"/><path class="cls-4" d="M114.33,1287.88s-74.46,23.64-77,43.12H170.83v-43.12Z"/><polygon class="cls-1" points="333.47 1260.3 332.36 1290.13 280.83 1290.13 278.69 1256.44 333.47 1260.3"/><path class="cls-3" d="M333.52,1291.33H279.7l-2.3-36.19,57.32,4ZM282,1288.92H331.2l1-27.51L280,1257.74Z"/><polygon class="cls-5" points="238 664.94 222.6 678.3 173.79 1267.77 92.53 1267.77 92.53 609.72 340.19 615.49 337.17 1267.77 263.6 1267.77 208.83 652.33 238 664.94"/><path class="cls-2" d="M148.42,265.86s29.72,41.08,132.39,10.26,27.46,77.45,27.46,77.45L286.52,614.24l-146.55-3Z"/><path class="cls-4" d="M422.81,513.12s-43.33,24.13-76,23.48c-1.12,0,0,87.81,0,87.81-7.13-.32-64.61,2.31-80.12-8.47-13.27-9.22,14.15-260.85-40.45-386.59-1.17-2.71,34.25,5.19,42.53.19C274.07,226.32,369.3,265,369.3,265L440.67,445.7C448.46,465.41,441.62,503.38,422.81,513.12Z"/><path class="cls-4" d="M160.41,615.72c-7.38,5.12-18.31,7.93-27,8.69-19.22,1.69-32.92-4.21-39.43-4.08-3,.06-2.79,7.08-3.87,6.57C56.21,611.11,6.62,480.58,3.7,474.12a41.3,41.3,0,0,1-.94-31.93L71.53,263.71l87.31-32.09c3.44-1.17,48.36-6.17,46.19-2.27C162.87,305,166.89,611.23,160.41,615.72Z"/><path class="cls-3" d="M193.33,115.81A2.83,2.83,0,0,1,190.5,113l0-2.38a2.83,2.83,0,0,1,5.65-.06l0,2.38a2.81,2.81,0,0,1-2.79,2.85Z"/><path class="cls-3" d="M241.6,115.81h0a2.83,2.83,0,0,1-2.8-2.85l0-2.37a2.83,2.83,0,0,1,2.83-2.8h0a2.83,2.83,0,0,1,2.8,2.85l0,2.38A2.81,2.81,0,0,1,241.6,115.81Z"/><path class="cls-6" d="M251.74,101.27a3.16,3.16,0,0,1-1.64-.46,20.07,20.07,0,0,0-14.25-2.07,3.21,3.21,0,0,1-1.71-6.19,26.65,26.65,0,0,1,19.25,2.75,3.21,3.21,0,0,1-1.65,6Z"/><path class="cls-6" d="M184.59,101.27a3.21,3.21,0,0,1-1.64-6c9.15-5.45,18.84-2.86,19.25-2.75a3.21,3.21,0,0,1-1.7,6.19c-.13,0-7.55-1.93-14.27,2.07A3.16,3.16,0,0,1,184.59,101.27Z"/><path class="cls-3" d="M200.85,143.54c-1.54,2.27,6.34,10.08,15.48,9.68,14.94-.66,19.57-10.9,16-10.17-1.42.28-6.84,3.36-15.78,3.58C206.87,146.87,201.89,142,200.85,143.54Z"/><path class="cls-4" d="M335.18,1287.88s74.47,23.64,77,43.12H278.69v-43.12Z"/><path class="cls-3" d="M218.55,757.87a1.21,1.21,0,0,1-1.2-1.09l-6-62.55-14.6-3.69-9.13-25.69a1.21,1.21,0,1,1,2.27-.81l8.7,24.47,15,3.79,6.16,64.25a1.21,1.21,0,0,1-1.08,1.32Z"/><polygon class="cls-3" points="417.08 1323.6 417.08 1334.79 275.21 1334.79 275.21 1321.99 417.08 1323.6"/><polygon class="cls-3" points="175 1322.86 175 1334.79 33.13 1334.79 33.13 1321.99 175 1322.86"/><path class="cls-1" d="M265.69,521.57c3.21,5.57,26.95,16.09,44.41,17.33L328.85,534l18.21-3.84Z"/><path class="cls-3" d="M310.21,540.12H310c-17.28-1.23-41.79-11.74-45.36-17.94a1.21,1.21,0,0,1,2.09-1.2c2.93,5.08,25.79,15.41,43.24,16.72l18.56-4.85L346,529.35a1.21,1.21,0,0,1,.48,2.37l-17.4,3.47Z"/><polygon class="cls-1" points="339.25 503.91 346.4 530.04 309.67 536.12 266.37 521.57 323.12 520.61 339.25 503.91"/><rect class="cls-7" x="129.24" y="498.7" width="191.27" height="21.91"/><rect class="cls-8" x="139.97" y="479.01" width="188.03" height="19.83"/><rect class="cls-7" x="126.92" y="449.48" width="188.02" height="29.53"/><path class="cls-3" d="M329.21,477.81h-13V448.27H125.72v32h13.05v17.27H128v24.33H321.72V500.05h7.49Zm-201.08,0V450.69H313.74v27.12H128.13Zm191.18,41.6H130.45V499.9h8.32v.15H319.31Zm7.49-21.77h-5.08v-.15H141.18V480.22H326.8Z"/><path class="cls-1" d="M118.41,589s8,24.94,11.45,29.11,15.2,8.81,15.2,8.81l-39.63,29.42s-1.32-13.69-3-22.83c-.84-4.71-8.45-13.16-8.45-13.16a159.87,159.87,0,0,1,10.13-15.51C109.6,597.52,117.07,590.41,118.41,589Z"/><path class="cls-3" d="M286.37,975.25a1.21,1.21,0,0,1-.23-2.39l22.1-4.27-37.38-12.66L307,946.36l-14-20.42a1.22,1.22,0,0,1,.32-1.68,1.2,1.2,0,0,1,1.67.32l15.94,23.23-31.71,8.4,38.44,13-31,6A.86.86,0,0,1,286.37,975.25Z"/><path class="cls-3" d="M126.92,981.67a1.2,1.2,0,0,1-1.15-.85,1.22,1.22,0,0,1,.8-1.51l32.85-9.89L134.8,963,161,945.79l-23.62-6.92a1.19,1.19,0,0,1-.82-1.49,1.21,1.21,0,0,1,1.5-.82L166.72,945,140.67,962l27.65,7.25-41,12.36A1,1,0,0,1,126.92,981.67Z"/><polygon class="cls-4" points="205.03 229.35 176.6 265.86 120.72 238.04 151.15 218.35 205.03 229.35"/><path class="cls-3" d="M177,267.37l-58.67-29.2,32.62-21.1,56.27,11.49Zm-53.8-29.47,53.1,26.44,26.63-34.2-51.49-10.51Z"/><polygon class="cls-4" points="224.88 229.35 239.69 265.86 295.09 234.19 275.03 218.35 224.88 229.35"/><path class="cls-3" d="M239.09,267.59l-15.87-39.11,52.11-11.43,21.91,17.3Zm-12.56-37.37,13.76,33.9L292.94,234l-18.21-14.38Z"/><path class="cls-2" d="M96.32,248.09c1.31,5.06,31.45,133.43-2.3,213.78l-5.38,15.87,7.22,19.17s35.56-21.61,37.27-129.2c1.15-72.17-22.22-124.11-22.22-124.11Z"/><path class="cls-2" d="M337.35,245.29C336,250.34,318,373.28,353,456.43c2.2,5.23,12.65,18.87,12.65,18.87l-14.74,12.48s-30.39-18.9-38-123.49c-5.21-72,9.82-123.5,9.82-123.5Z"/><path class="cls-3" d="M149.39,623.69a1.21,1.21,0,0,0-1.69-.24l-2.81,2.08c-3.59-1.47-11.61-5.18-14.1-8.21-2.68-3.26-9-21.72-11.21-28.65,4.73-5.07,8.08-8.29,8.18-8.38l.57-.55L84.09,462.24l19.16-41.79a1.2,1.2,0,1,0-2.19-1L81.48,462.14l44,117c-2.16,2.12-10.08,10-18.32,20-1.38,1.6-2.75,3.28-4,5l-.59.79c-5.3,6.91-10.31,14.42-13.54,21.51a1.2,1.2,0,0,0,.6,1.6,1.09,1.09,0,0,0,.49.11,1.21,1.21,0,0,0,1.1-.7c.8-1.75,1.72-3.53,2.71-5.32,2.42,2.84,6.76,8.44,7.33,11.61,1.6,9,2.92,22.59,2.94,22.73l.2,2.13,1.71-1.27h0l43-31.91A1.21,1.21,0,0,0,149.39,623.69Zm-53.9-3.51a164,164,0,0,1,9.18-14c1.38-1.79,2.77-3.53,4.15-5.22,3.46-4,7-7.63,9.06-9.69,2,6,8.05,24,11.05,27.61,2.73,3.32,10.13,6.8,13.71,8.35l-28.33,21-7.9,5.86c-.44-4.22-1.51-13.86-2.75-20.81C102.9,629,97.33,622.31,95.49,620.18Z"/><path class="cls-2" d="M285,54.68a17.49,17.49,0,0,0-4.81-4.52c1.06-4.34,2.65-15.24-7.55-17.07-12.78-2.31-15,2.72-25.86-6.79S235,3.13,220.45,8.63s-18.64,16.29-27.89,8.72S179.38-3.12,164.33.69,139.45,7.1,142.7,18.78s12.52,12.56,14.22,17.65c.92,2.74-.44,5.5-1.33,8.5-4,3.62-10.14,10.42-9.41,17.42,1.07,10.28,9.63,9.21,7.49,19.05s2.85,17.87,5.17,18.78,16.78,13.25,13.81-2.12-6.35-18.58-1.43-24.57c2.1-2.57,2.26-8.25.85-14.09,2.14-3,16.38-4.68,23.24,2,7.23,7,13.14,13.75,25.42,10.76s20.85-5,28.59-2.34c3,1,6.62,3.25,10.18,5.36a31.64,31.64,0,0,0,2,5.63c3.16,6.37,7.42,13.71,5.62,22.63s19.45-3,16.26-13.45C276.84,68.49,293.33,66.57,285,54.68Z"/><path class="cls-3" d="M219.83,136.57a1.15,1.15,0,0,1-.26,0c-1.39-.3-8.34-2-9-5.78-.54-3-.22-3.77,3.67-13.76.86-2.2,1.9-4.86,3.14-8.11a1.21,1.21,0,0,1,2.25.87c-1.25,3.25-2.28,5.91-3.14,8.11-3.85,9.89-3.95,10.23-3.54,12.45.3,1.65,4.46,3.28,7.18,3.86a1.21,1.21,0,0,1-.25,2.39Z"/><path class="cls-4" d="M221.22,102.24l.09,1.28c0,.71.13,1.93.25,3.47a20.86,20.86,0,0,0-9,.06c.13-1.57.22-2.81.26-3.53l.09-1.28H171.33l.12,1.32c.22,2.33,2.31,22.83,6.39,26.47,2.27,2,9.12,3.17,15.83,3.17,6.2,0,12.27-1,14.5-3.22s3.48-13.06,4.15-20.37a18.57,18.57,0,0,1,9.46-.1c.67,7.31,2,18.31,4.16,20.47s8.3,3.22,14.5,3.22c6.71,0,13.56-1.16,15.83-3.17,4.08-3.64,6.17-24.14,6.39-26.47l.12-1.32Zm-14.76,26c-3.62,3.63-23.63,3-27-.05-2.42-2.15-4.56-15.06-5.46-23.57h36.32c-.08,1.06-.16,2.12-.25,3.18a11.77,11.77,0,0,0-2.37,1.21,1.21,1.21,0,1,0,1.4,2,5.76,5.76,0,0,1,.71-.42C209,119.23,207.67,127.06,206.46,128.27Zm48.21-.05c-3.39,3-23.4,3.68-27,.05-1.23-1.22-2.53-9.26-3.38-18,.73.26,1.47.55,2.24.9a1.24,1.24,0,0,0,.5.1,1.22,1.22,0,0,0,1.1-.71,1.2,1.2,0,0,0-.61-1.59,29.65,29.65,0,0,0-3.47-1.32c-.08-1-.16-2-.23-3h36.32C259.22,113.16,257.08,126.07,254.67,128.22Z"/><path class="cls-3" d="M59.9,1326.6a1.19,1.19,0,0,1-1-.48,1.21,1.21,0,0,1,.23-1.69c.24-.18,24.23-18.06,59.13-26.08a1.21,1.21,0,1,1,.54,2.35c-34.4,7.91-58,25.48-58.21,25.66A1.23,1.23,0,0,1,59.9,1326.6Z"/><path class="cls-3" d="M392.14,1329.6a1.22,1.22,0,0,1-.72-.24c-.24-.18-23.84-17.77-58.22-25.66a1.21,1.21,0,0,1,.54-2.36c34.9,8,58.89,25.91,59.13,26.09a1.21,1.21,0,0,1,.24,1.69A1.23,1.23,0,0,1,392.14,1329.6Z"/><path class="cls-1" d="M339.25,503,326,515.81s-36.24,7.59-29.18,10.47,36-1.21,36-1.21Z"/><path class="cls-3" d="M306,528.5c-4.12,0-7.65-.3-9.63-1.11-1.55-.63-1.7-1.61-1.65-2.14.09-1.09.26-2.91,16-7.08,6.52-1.72,13.1-3.14,14.65-3.47l13-12.53a1.21,1.21,0,0,1,1.67,1.74l-13.5,13-.34.08c-12.2,2.55-25.94,6.28-28.74,8.25,5.88,2.12,27.3-.26,35.16-1.37a1.21,1.21,0,0,1,.34,2.39C332.14,526.38,317,528.5,306,528.5Z"/><path class="cls-3" d="M388.85,455.65a1.2,1.2,0,0,0-1.7-.14l-15.26,12.93-23.2-47.81a1.21,1.21,0,1,0-2.17,1.05L370,470l-33.15,28.09,0,0a.38.38,0,0,0-.09.09l-.07.09a.61.61,0,0,0-.07.1.54.54,0,0,0-.05.11l0,.1,0,.12a.36.36,0,0,0,0,.11.45.45,0,0,0,0,.11.24.24,0,0,0,0,.12.49.49,0,0,0,0,.12s0,.07,0,.11,0,.08,0,.12l0,.06c.1.23,10.05,23.29,8.71,33.56a4.05,4.05,0,0,0,1.09,3.49c1.57,1.59,4.42,1.88,6.33,1.88a15.58,15.58,0,0,0,1.9-.1,1.2,1.2,0,0,0-.28-2.39c-1.2.14-4.92.24-6.23-1.09a1.61,1.61,0,0,1-.42-1.48c1.29-9.9-6.71-29.66-8.53-34l49.63-42A1.2,1.2,0,0,0,388.85,455.65Z"/></g></g></svg>