<?xml version="1.0" encoding="iso-8859-1"?>
<!-- Generator: Adobe Illustrator 19.0.0, SVG Export Plug-In . SVG Version: 6.00 Build 0)  -->
<svg version="1.1" id="Capa_1" xmlns="http://www.w3.org/2000/svg" xmlns:xlink="http://www.w3.org/1999/xlink" x="0px" y="0px"
	 viewBox="0 0 512 512" style="enable-background:new 0 0 512 512;" xml:space="preserve">
<g>
	<g>
		<path d="M186.685,0c-53.474,0-96.978,43.505-96.978,96.979c0,53.476,43.505,96.981,96.978,96.981
			c53.475,0,96.98-43.506,96.98-96.981C283.665,43.505,240.16,0,186.685,0z"/>
	</g>
</g>
<g>
	<g>
		<path d="M352.4,192.799c-57.585,0-108.141,30.658-136.214,76.506c-9.722-1.543-19.601-2.333-29.501-2.333
			C83.747,266.972,0,350.719,0,453.657c0,8.284,6.716,15,15,15h228.177C271.75,495.516,310.185,512,352.4,512
			c88.003,0,159.6-71.596,159.6-159.6S440.403,192.799,352.4,192.799z M352.4,481.998c-71.462,0-129.601-58.138-129.601-129.6
			c0-71.461,58.139-129.6,129.601-129.6S482,280.938,482,352.399C482,423.862,423.862,481.998,352.4,481.998z"/>
	</g>
</g>
<g>
	<g>
		<path d="M400.6,337.399h-33.2v-33.2c0-8.284-6.716-15-15-15s-15,6.716-15,15v33.2h-33.2c-8.284,0-15,6.716-15,15s6.716,15,15,15
			h33.2v33.2c0,8.284,6.716,15,15,15s15-6.716,15-15v-33.2h33.2c8.284,0,15-6.716,15-15S408.884,337.399,400.6,337.399z"/>
	</g>
</g>
<g>
</g>
<g>
</g>
<g>
</g>
<g>
</g>
<g>
</g>
<g>
</g>
<g>
</g>
<g>
</g>
<g>
</g>
<g>
</g>
<g>
</g>
<g>
</g>
<g>
</g>
<g>
</g>
<g>
</g>
</svg>
