<?xml version="1.0" encoding="iso-8859-1"?>
<!-- Generator: Adobe Illustrator 16.0.0, SVG Export Plug-In . SVG Version: 6.00 Build 0)  -->
<!DOCTYPE svg PUBLIC "-//W3C//DTD SVG 1.1//EN" "http://www.w3.org/Graphics/SVG/1.1/DTD/svg11.dtd">
<svg version="1.1" id="Capa_1" xmlns="http://www.w3.org/2000/svg" xmlns:xlink="http://www.w3.org/1999/xlink" x="0px" y="0px"
	 width="31.186px" height="31.186px" viewBox="0 0 31.186 31.186" style="enable-background:new 0 0 31.186 31.186;"
	 xml:space="preserve">
<g>
	<g>
		<circle cx="5.998" cy="19.656" r="4.814"/>
		<polygon points="7.857,25.192 6.082,27.32 4.248,25.192 0,25.838 0,31 11.903,31 11.736,25.838 		"/>
		<circle cx="25.281" cy="19.388" r="4.813"/>
		<polygon points="31.02,25.568 27.141,24.924 25.365,27.052 23.529,24.924 19.283,25.568 19.283,30.73 31.186,30.73 		"/>
		<circle cx="16.07" cy="4.999" r="4.813"/>
		<polygon points="20.759,13.225 27.057,6.927 25.381,5.25 20.393,10.536 17.93,10.536 16.154,12.664 14.32,10.536 10.072,11.181 
			10.072,15.875 20.627,15.875 		"/>
	</g>
</g>
<g>
</g>
<g>
</g>
<g>
</g>
<g>
</g>
<g>
</g>
<g>
</g>
<g>
</g>
<g>
</g>
<g>
</g>
<g>
</g>
<g>
</g>
<g>
</g>
<g>
</g>
<g>
</g>
<g>
</g>
</svg>
